<svg width="100%" height="100%" viewBox="0 0 643 773" fill="none" xmlns="http://www.w3.org/2000/svg">
	<path opacity="0.5" d="M234.849 709.58c-64.623-17.315-113.495-69.113-140.2391-138.943-26.7439-69.83-31.3411-157.657-7.4226-246.922 23.9187-89.265 71.8137-163.027 129.8887-210.13 58.077-47.1028 126.3-67.5246 190.923-50.2089 64.623 17.3157 113.496 69.1129 140.24 138.9439 26.744 69.83 31.341 157.657 7.422 246.922-23.918 89.265-71.813 163.027-129.889 210.129-58.076 47.103-126.3 67.525-190.923 50.209Z" stroke="#DCCEC8" vector-effect="non-scaling-stroke" fill="none"></path>
	<path opacity="0.5" d="M445.942 281.318c38.752 22.373 60.695 65.498 64.779 117.226 4.084 51.724-9.7 111.998-42.346 168.544-32.647 56.546-77.954 98.619-124.79 120.945-46.84 22.327-95.159 24.886-133.911 2.512-38.752-22.373-60.696-65.498-64.78-117.226-4.083-51.724 9.7-111.998 42.347-168.544 32.647-56.546 77.954-98.619 124.79-120.945 46.839-22.327 95.158-24.886 133.911-2.512Z" stroke="#DCCEC8" vector-effect="non-scaling-stroke" fill="none"></path>
</svg>